<?xml version="1.0" encoding="UTF-8"?>
<svg xmlns="http://www.w3.org/2000/svg" xmlns:xlink="http://www.w3.org/1999/xlink" width="192px" height="192px" viewBox="0 0 192 192" version="1.1">
<defs>
<linearGradient id="linear0" gradientUnits="userSpaceOnUse" x1="0.5" y1="0" x2="0.5" y2="1" gradientTransform="matrix(192,0,0,192,0,0)">
<stop offset="0" style="stop-color:rgb(14.117647%,67.843137%,100%);stop-opacity:1;"/>
<stop offset="1" style="stop-color:rgb(48.235294%,44.313725%,100%);stop-opacity:1;"/>
</linearGradient>
</defs>
<g id="surface1">
<path style=" stroke:none;fill-rule:nonzero;fill:url(#linear0);" d="M 96 0 C 149.019531 0 192 42.980469 192 96 C 192 149.019531 149.019531 192 96 192 C 42.980469 192 0 149.019531 0 96 C 0 42.980469 42.980469 0 96 0 Z M 91.257812 88.667969 L 56.839844 119.402344 C 53.296875 122.191406 50.96875 126.796875 50.96875 131.976562 C 50.96875 140.433594 57.175781 147.355469 64.757812 147.355469 L 129.441406 147.355469 C 137.027344 147.355469 143.234375 140.433594 143.234375 131.976562 C 143.234375 123.515625 137.027344 116.59375 129.441406 116.59375 L 80.476562 116.59375 C 79.75 116.59375 79.289062 115.726562 79.644531 115.015625 L 92.269531 89.738281 C 92.730469 89.003906 91.898438 88.117188 91.257812 88.667969 Z M 129.441406 44.523438 L 64.757812 44.523438 C 57.175781 44.523438 50.96875 51.441406 50.96875 59.902344 C 50.96875 68.363281 57.175781 75.285156 64.757812 75.285156 L 113.726562 75.285156 C 114.453125 75.285156 114.910156 76.152344 114.558594 76.859375 L 101.933594 102.140625 C 101.472656 102.875 102.300781 103.757812 102.941406 103.210938 L 137.359375 72.472656 C 140.90625 69.679688 143.234375 65.078125 143.234375 59.898438 C 143.234375 51.441406 137.027344 44.515625 129.441406 44.523438 Z M 129.441406 44.523438 "/>
</g>
</svg>
